<svg xmlns="http://www.w3.org/2000/svg" viewBox="0 0 1310 716"><defs><style>.cls-1{fill:#231f20;}.cls-2{fill:#cd1815;}</style></defs><g id="v2"><g id="AlignmentGroup"><path class="cls-1" d="M232.8115,709.2363,204.08,652.1406H177.7285v57.0957H161.8076V581.1372h43.1875c20.6787,0,38.2471,8.2349,38.2471,35.1357,0,20.6788-10.2481,30.7437-24.3389,34.2208l30.3779,58.7426Zm-55.083-64.9643h27.2666c12.2617,0,20.13-6.0391,20.13-25.2539v-5.3072c0-19.3979-7.8682-24.7046-20.13-24.7046H177.7285Z"/><path class="cls-1" d="M273.8037,581.1372h68.625l2.5615,7.8691H289.7246v49.2266h41.9072v7.8687H289.7246v55.2656H348.65l-2.5625,7.8691H273.8037Z"/><path class="cls-1" d="M430.8164,680.3228H379.0273l-9.8818,28.9135h-8.7842l44.1035-128.0991h8.6006l44.4688,128.0991H440.8809Zm-2.7451-7.8692L404.83,605.293l-23.0576,67.1606Z"/><path class="cls-1" d="M548.665,701.3672l-2.5615,7.8691h-68.625V581.1372h15.9209v120.23Z"/><path class="cls-1" d="M614.91,581.1372h68.625l2.5615,7.8691H630.8311v49.2266h41.9072v7.8687H630.8311v55.2656h58.9257l-2.5625,7.8691H614.91Z"/><path class="cls-1" d="M701.6523,694.0474l4.3916-6.0391h1.83a41.14,41.14,0,0,0,32.5742,15.5552c17.75,0,28.1817-9.333,28.1817-23.9732,0-35.1357-61.3047-26.5346-61.3047-67.5263,0-20.4956,16.47-33.1226,39.1611-33.1226,11.8955,0,22.5088,2.9277,31.4766,12.627l-4.209,6.2216h-1.83c-6.5879-7.686-15.5547-10.98-25.4375-10.98-15.3711,0-23.789,7.32-23.789,19.7641,0,30.9268,60.5722,24.3389,60.5722,68.6245,0,21.2276-16.2871,36.2334-42.8213,36.2334C724.1611,711.4321,711.3506,704.8442,701.6523,694.0474Z"/><path class="cls-1" d="M842.1963,589.0063v120.23H826.458v-120.23H789.4922l2.5625-7.8691H876.6l2.5625,7.8691Z"/><path class="cls-1" d="M941.9336,680.3228H890.1445l-9.8818,28.9135h-8.7842L915.582,581.1372h8.6006l44.4688,128.0991H951.998Zm-2.7451-7.8692L915.9473,605.293,892.89,672.4536Z"/><path class="cls-1" d="M1013.6689,589.0063v120.23H997.9307v-120.23H960.9648l2.5625-7.8691h84.545l2.5625,7.8691Z"/><path class="cls-1" d="M1070.582,581.1372h68.625l2.5616,7.8691h-55.2657v49.2266H1128.41v7.8687h-41.9073v55.2656h58.9258l-2.5625,7.8691H1070.582Z"/><g id="Abode_Letters" data-name="Abode Letters"><path class="cls-2" d="M358.4814,511.9866q0,17.57-21.9613,17.57c-15.3745,0-23.4268-5.8567-23.4268-17.57V349.4621H51.7378V511.9866q0,17.57-21.9639,17.57c-15.3719,0-22.6941-5.8567-22.6941-17.57V215.4909c0-38.0685,8.7851-67.352,35.14-94.44L144.7121,17.8275c5.8567-6.5881,19.033-14.6417,37.3358-14.6417,15.3745,0,31.4816,8.0536,36.6056,14.6417L323.3413,121.0511c27.0878,26.3551,35.14,56.3713,35.14,94.44ZM313.8235,310.6622V218.4193c0-28.5508-5.124-49.0492-26.3551-70.28L182.7806,42.7185,78.0929,148.1389c-21.2312,21.2312-26.3551,41.73-26.3551,70.28v92.2429Z"/><g id="bode-small"><path class="cls-1" d="M595.578,399.4653c0,82.9213-40.7164,130.0914-94.3419,130.0914-23.3366,0-45.6809-5.9584-62.0669-22.84l-25.3227,19.8613h-9.9307V176.0259h40.7165V292.7105c14.8951-17.3782,34.7564-23.3366,56.6038-23.3366C554.8616,269.3739,595.578,316.544,595.578,399.4653Zm-42.7026-29.7919c0-64.0522-26.8136-80.4382-53.6254-80.4382-25.82,0-42.7009,9.9307-54.6177,28.7989V480.8966c11.9168,18.8682,28.798,28.7988,54.6177,28.7988,26.8118,0,53.6254-16.386,53.6254-82.92Z"/><path class="cls-1" d="M625.2937,399.4653c0-83.4174,40.7165-130.0914,104.2726-130.0914s104.2708,46.674,104.2708,130.0914S793.1224,529.5567,729.5663,529.5567,625.2937,482.8827,625.2937,399.4653Zm165.8408,25.82V373.15c0-60.0808-27.3088-83.9144-61.5682-83.9144-34.2612,0-61.5717,23.8336-61.5717,83.9144V426.278c0,59.5839,27.3105,83.4174,61.5717,83.4174C763.8257,509.6954,791.1345,484.8688,791.1345,425.285Z"/><path class="cls-1" d="M1055.2167,176.0259V523.5983H1014.5V506.22c-14.8951,17.3782-34.7563,23.3366-56.6055,23.3366-53.6237,0-94.34-47.17-94.34-130.0914s40.7165-130.0914,94.34-130.0914c21.8492,0,41.71,5.9584,56.6055,23.3366V176.0259ZM1014.5,480.8966V318.0341c-11.9167-18.8682-28.8-28.7989-54.6176-28.7989-26.8136,0-53.6272,16.386-53.6272,82.92v57.1016c0,64.0522,26.8136,80.4382,53.6272,80.4382C985.7005,509.6954,1002.5835,499.7648,1014.5,480.8966Z"/><path class="cls-1" d="M1127.4945,399.9614v25.82c0,59.5838,25.8214,83.9143,75.4729,83.9143,26.8136,0,55.6116-13.9029,71.0054-33.7642h4.4675l10.9245,11.42A118.7806,118.7806,0,0,1,1198.5,529.5567c-72.99,0-113.7062-47.17-113.7062-130.0914,0-83.4174,40.7164-130.0914,104.2725-130.0914,63.0592,0,103.2787,46.674,103.2787,125.1261v5.4614Zm0-24.33V380.1h122.6447v-4.4683c0-60.5769-26.8135-86.3966-61.073-86.3966C1154.8051,289.2352,1127.4945,315.0549,1127.4945,375.6318Z"/></g></g></g></g></svg>