<svg width="35" height="36" viewBox="0 0 35 36" fill="none" xmlns="http://www.w3.org/2000/svg">
<path d="M32.2008 0.181641H2.99062C1.39453 0.181641 0 1.33008 0 2.90742V32.1824C0 33.7684 1.39453 35.1816 2.99062 35.1816H32.1922C33.7969 35.1816 35 33.759 35 32.1824V2.90742C35.0094 1.33008 33.7969 0.181641 32.2008 0.181641ZM10.8492 29.3559H5.83516V13.766H10.8492V29.3559ZM8.51562 11.3957H8.47969C6.875 11.3957 5.83594 10.2012 5.83594 8.70586C5.83594 7.1832 6.90234 6.0168 8.54297 6.0168C10.1836 6.0168 11.1875 7.17461 11.2234 8.70586C11.2227 10.2012 10.1836 11.3957 8.51562 11.3957ZM29.1742 29.3559H24.1602V20.8316C24.1602 18.7895 23.4305 17.3941 21.6164 17.3941C20.2305 17.3941 19.4102 18.3316 19.0453 19.2449C18.9086 19.573 18.8719 20.0199 18.8719 20.4762V29.3559H13.8578V13.766H18.8719V15.9355C19.6016 14.8965 20.7414 13.4012 23.3938 13.4012C26.6852 13.4012 29.175 15.5707 29.175 20.248L29.1742 29.3559Z" fill="#9DADAD"/>
</svg>
