<svg width="89" height="153" viewBox="0 0 89 153" fill="none" xmlns="http://www.w3.org/2000/svg">
<path d="M88.7251 147.893C88.7251 151.298 86.8824 153 83.1969 153C79.3268 153 77.2999 151.298 77.2999 147.893V100.652H11.5109V147.893C11.5109 151.298 9.66799 153 5.98213 153C2.11268 153 0.269531 151.298 0.269531 147.893V61.7106C0.269531 50.6453 2.48092 42.1335 9.11508 34.2598L34.9146 4.2559C36.3889 2.34092 39.7057 0 44.3129 0C48.183 0 52.2375 2.34092 53.5273 4.2559L79.8795 34.2598C86.6981 41.9205 88.7251 50.6453 88.7251 61.7107V147.893ZM77.4837 89.374V62.5618C77.4837 54.2629 76.1939 48.3047 70.8495 42.1335L44.4973 11.4909L18.1451 42.1335C12.8007 48.3047 11.5109 54.263 11.5109 62.5618V89.374H77.4837Z" fill="#ED2024"/>
</svg>
