<svg width="185" height="87" viewBox="0 0 185 87" fill="none" xmlns="http://www.w3.org/2000/svg">
<path d="M50.9692 62.0267C50.9692 63.4325 49.9253 64.1354 47.8374 64.1354C45.6449 64.1354 44.4966 63.4325 44.4966 62.0267V42.5215H7.22589V62.0267C7.22589 63.4325 6.18184 64.1354 4.09372 64.1354C1.90161 64.1354 0.857422 63.4325 0.857422 62.0267V26.443C0.857422 21.8743 2.11022 18.3598 5.86858 15.1089L20.4845 2.7206C21.3197 1.92993 23.1987 0.963379 25.8088 0.963379C28.0013 0.963379 30.2983 1.92993 31.029 2.7206L45.958 15.1089C49.8209 18.2719 50.9692 21.8743 50.9692 26.4431L50.9692 62.0267ZM44.6007 37.8649V26.7945C44.6007 23.368 43.87 20.9079 40.8424 18.3599L25.9133 5.70797L10.9843 18.3599C7.95659 20.9079 7.22589 23.3681 7.22589 26.7945V37.8649H44.6007Z" fill="#ED2024"/>
<path d="M84.7803 48.5225C84.7803 58.4742 78.9739 64.1353 71.3266 64.1353C67.9987 64.1353 64.8123 63.4202 62.4756 61.3941L58.8644 63.7777H57.4482V21.7065H63.2546V35.7104C65.3788 33.6247 68.2111 32.9096 71.3266 32.9096C78.9739 32.9096 84.7803 38.5707 84.7803 48.5225ZM78.6907 44.947C78.6907 37.2598 74.8669 35.2933 71.0434 35.2933C67.3614 35.2933 64.954 36.4851 63.2546 38.7496V58.2954C64.954 60.5598 67.3614 61.7517 71.0434 61.7517C74.8669 61.7517 78.6907 59.7851 78.6907 51.8001V44.947Z" fill="#231F20"/>
<path d="M89.0181 48.5225C89.0181 38.5112 94.8245 32.9097 103.888 32.9097C112.951 32.9097 118.758 38.5112 118.758 48.5225C118.758 58.5338 112.951 64.1353 103.888 64.1353C94.8245 64.1353 89.0181 58.5338 89.0181 48.5225ZM112.668 51.6213V45.3643C112.668 38.1537 108.773 35.2934 103.888 35.2934C99.0021 35.2934 95.1075 38.1537 95.1075 45.3643V51.7405C95.1075 58.8914 99.0021 61.7517 103.888 61.7517C108.773 61.7517 112.668 58.7721 112.668 51.6212V51.6213Z" fill="#231F20"/>
<path d="M150.328 21.7065V63.4202H144.521V61.3346C142.397 63.4202 139.565 64.1353 136.449 64.1353C128.802 64.1353 122.996 58.4742 122.996 48.5225C122.996 38.5707 128.802 32.9096 136.449 32.9096C139.565 32.9096 142.397 33.6247 144.521 35.7104V21.7065H150.328ZM144.521 58.2954V38.7496C142.822 36.4851 140.414 35.2933 136.733 35.2933C132.909 35.2933 129.085 37.2598 129.085 45.2449V52.0979C129.085 59.7851 132.909 61.7516 136.733 61.7516C140.414 61.7516 142.822 60.5598 144.521 58.2954Z" fill="#231F20"/>
<path d="M160.634 48.582V51.6808C160.634 58.8317 164.317 61.7517 171.397 61.7517C175.221 61.7517 179.328 60.0831 181.523 57.6995H182.16L183.718 59.07C182.127 60.6578 180.143 61.9338 177.905 62.8087C175.666 63.6837 173.228 64.1364 170.76 64.1353C160.351 64.1353 154.545 58.4743 154.545 48.5225C154.545 38.5112 160.351 32.9097 169.415 32.9097C178.407 32.9097 184.143 38.5112 184.143 47.9266V48.582L160.634 48.582ZM160.634 45.662V46.1983H178.124V45.6621C178.124 38.392 174.3 35.2932 169.415 35.2932C164.529 35.2933 160.634 38.392 160.634 45.6621V45.662Z" fill="#231F20"/>
<path d="M32.4908 85.7717L28.3935 78.9194H24.6356V85.7717H22.3652V70.3979H28.524C31.4729 70.3979 33.9783 71.3863 33.9783 74.6147C33.9783 77.0965 32.5168 78.3044 30.5074 78.7217L34.8394 85.7717H32.4908ZM24.6356 77.975H28.524C30.2726 77.975 31.3947 77.2502 31.3947 74.9442V74.3073C31.3947 71.9792 30.2726 71.3424 28.524 71.3424H24.6356V77.975Z" fill="#231F20"/>
<path d="M38.3354 70.3984H48.1217L48.487 71.3428H40.6059V77.2507H46.582V78.1951H40.6059V84.8278H49.0089L48.6435 85.7722H38.3354V70.3984Z" fill="#231F20"/>
<path d="M60.7265 82.3021H53.3411L51.9319 85.7722H50.6792L56.9686 70.3984H58.1951L64.5366 85.7722H62.1617L60.7265 82.3021ZM60.335 81.3577L57.0207 73.2975L53.7325 81.3577H60.335Z" fill="#231F20"/>
<path d="M77.5329 84.8278L77.1676 85.7722H67.3813V70.3984H69.6518V84.8278H77.5329Z" fill="#231F20"/>
<path d="M86.9795 70.3984H96.7658L97.1311 71.3428H89.2499V77.2507H95.2261V78.1951H89.2499V84.8278H97.6531L97.2876 85.7722H86.9795V70.3984Z" fill="#231F20"/>
<path d="M99.3501 83.9496L99.9764 83.2248H100.237C100.792 83.8127 101.499 84.2865 102.304 84.6099C103.109 84.9334 103.991 85.0982 104.883 85.0917C107.414 85.0917 108.901 83.9716 108.901 82.2146C108.901 77.9978 100.159 79.03 100.159 74.1104C100.159 71.6507 102.508 70.1353 105.744 70.1353C107.44 70.1353 108.954 70.4866 110.232 71.6507L109.632 72.3974H109.371C108.432 71.4749 107.153 71.0796 105.744 71.0796C103.552 71.0796 102.351 71.9581 102.351 73.4516C102.351 77.1632 110.989 76.3726 110.989 81.6875C110.989 84.2351 108.667 86.036 104.883 86.036C102.56 86.036 100.733 85.2454 99.3501 83.9496Z" fill="#231F20"/>
<path d="M119.392 71.3428V85.7722H117.148V71.3428H111.876L112.242 70.3984H124.299L124.664 71.3428H119.392Z" fill="#231F20"/>
<path d="M133.615 82.3021H126.23L124.821 85.7722H123.568L129.857 70.3984H131.084L137.425 85.7722H135.05L133.615 82.3021ZM133.224 81.3577L129.909 73.2975L126.621 81.3577H133.224Z" fill="#231F20"/>
<path d="M143.845 71.3428V85.7722H141.601V71.3428H136.329L136.695 70.3984H148.751L149.117 71.3428H143.845Z" fill="#231F20"/>
<path d="M151.961 70.3984H161.748L162.113 71.3428H154.232V77.2507H160.208V78.1951H154.232V84.8278H162.635L162.27 85.7722H151.961V70.3984Z" fill="#231F20"/>
</svg>
