<svg width="850" height="172" viewBox="0 0 850 172" fill="none" xmlns="http://www.w3.org/2000/svg">
<path d="M444.725 147.893C444.725 151.298 442.882 153 439.197 153C435.327 153 433.3 151.298 433.3 147.893V100.652H367.511V147.893C367.511 151.298 365.668 153 361.982 153C358.113 153 356.27 151.298 356.27 147.893V61.7106C356.27 50.6453 358.481 42.1335 365.115 34.2598L390.915 4.2559C392.389 2.34092 395.706 0 400.313 0C404.183 0 408.238 2.34092 409.527 4.2559L435.88 34.2598C442.698 41.9205 444.725 50.6453 444.725 61.7107V147.893ZM433.484 89.374V62.5618C433.484 54.2629 432.194 48.3047 426.85 42.1335L400.497 11.4909L374.145 42.1335C368.801 48.3047 367.511 54.263 367.511 62.5618V89.374H433.484Z" fill="#ED2024"/>
<path d="M110.556 75.0547H116.767V119H112.373V83.3164L100.185 119H95.439L83.2515 83.3164V119H78.8569V75.0547H85.0679L97.812 112.408L110.556 75.0547ZM128.65 103.033C128.748 106.9 129.509 109.762 130.935 111.617C132.439 113.609 134.851 114.605 138.171 114.605C141.492 114.605 143.914 113.609 145.437 111.617C146.042 110.816 146.531 109.83 146.902 108.658H151.472C150.906 111.158 149.958 113.209 148.63 114.811C146.306 117.604 142.82 119 138.171 119C133.542 119 130.066 117.613 127.742 114.84C125.417 112.047 124.255 107.867 124.255 102.301C124.255 96.7344 125.417 92.5645 127.742 89.791C130.066 86.998 133.542 85.6016 138.171 85.6016C142.82 85.6016 146.296 86.998 148.601 89.791C150.925 92.5645 152.087 96.7344 152.087 102.301V103.033H128.65ZM147.458 98.6387C147.146 96.1973 146.472 94.3027 145.437 92.9551C143.914 90.9824 141.492 89.9961 138.171 89.9961C134.851 89.9961 132.439 90.9824 130.935 92.9551C129.88 94.3027 129.197 96.1973 128.884 98.6387H147.458ZM161.158 103.033C161.255 106.9 162.017 109.762 163.443 111.617C164.947 113.609 167.359 114.605 170.679 114.605C174 114.605 176.421 113.609 177.945 111.617C178.55 110.816 179.039 109.83 179.41 108.658H183.98C183.414 111.158 182.466 113.209 181.138 114.811C178.814 117.604 175.328 119 170.679 119C166.05 119 162.574 117.613 160.25 114.84C157.925 112.047 156.763 107.867 156.763 102.301C156.763 96.7344 157.925 92.5645 160.25 89.791C162.574 86.998 166.05 85.6016 170.679 85.6016C175.328 85.6016 178.804 86.998 181.109 89.791C183.433 92.5645 184.595 96.7344 184.595 102.301V103.033H161.158ZM179.966 98.6387C179.654 96.1973 178.98 94.3027 177.945 92.9551C176.421 90.9824 174 89.9961 170.679 89.9961C167.359 89.9961 164.947 90.9824 163.443 92.9551C162.388 94.3027 161.705 96.1973 161.392 98.6387H179.966ZM192.875 89.9961H188.158V85.6016H192.875V75.0547H197.269V85.6016H203.392V89.9961H197.269V110.504C197.269 113.238 199.31 114.605 203.392 114.605V119C196.38 119 192.875 116.168 192.875 110.504V89.9961ZM228.945 89.9961H224.228V85.6016H228.945V75.0547H233.339V85.6016H239.462V89.9961H233.339V110.504C233.339 113.238 235.38 114.605 239.462 114.605V119C232.451 119 228.945 116.168 228.945 110.504V89.9961ZM266.96 119V98.1992C266.96 92.7305 264.421 89.9961 259.343 89.9961C256.667 89.9961 254.333 91.1777 252.341 93.541C250.369 95.9043 249.382 97.5547 249.382 98.4922V119H244.988V75.0547H249.382V91.373C252.429 87.5254 255.75 85.6016 259.343 85.6016C267.351 85.6016 271.355 89.8008 271.355 98.1992V119H266.96ZM282.505 103.033C282.603 106.9 283.365 109.762 284.791 111.617C286.294 113.609 288.707 114.605 292.027 114.605C295.347 114.605 297.769 113.609 299.292 111.617C299.898 110.816 300.386 109.83 300.757 108.658H305.328C304.761 111.158 303.814 113.209 302.486 114.811C300.162 117.604 296.675 119 292.027 119C287.398 119 283.921 117.613 281.597 114.84C279.273 112.047 278.111 107.867 278.111 102.301C278.111 96.7344 279.273 92.5645 281.597 89.791C283.921 86.998 287.398 85.6016 292.027 85.6016C296.675 85.6016 300.152 86.998 302.457 89.791C304.781 92.5645 305.943 96.7344 305.943 102.301V103.033H282.505ZM301.314 98.6387C301.001 96.1973 300.328 94.3027 299.292 92.9551C297.769 90.9824 295.347 89.9961 292.027 89.9961C288.707 89.9961 286.294 90.9824 284.791 92.9551C283.736 94.3027 283.052 96.1973 282.74 98.6387H301.314ZM485.914 119H481.519V75.0547H485.914V90.4941C487.789 87.2324 490.718 85.6016 494.703 85.6016C503.492 85.6016 507.886 91.168 507.886 102.301C507.886 113.434 503.492 119 494.703 119C490.718 119 487.789 117.369 485.914 114.107V119ZM488.14 93.248C486.656 95.416 485.914 98.4336 485.914 102.301C485.914 106.148 486.656 109.166 488.14 111.354C489.644 113.521 491.832 114.605 494.703 114.605C500.562 114.605 503.492 110.504 503.492 102.301C503.492 94.0977 500.562 89.9961 494.703 89.9961C491.832 89.9961 489.644 91.0801 488.14 93.248ZM533.832 111.617C535.335 109.645 536.087 106.539 536.087 102.301C536.087 98.043 535.335 94.9277 533.832 92.9551C532.308 90.9824 529.886 89.9961 526.566 89.9961C523.246 89.9961 520.833 90.9824 519.33 92.9551C517.806 94.9277 517.044 98.043 517.044 102.301C517.044 106.539 517.806 109.645 519.33 111.617C520.833 113.609 523.246 114.605 526.566 114.605C529.886 114.605 532.308 113.609 533.832 111.617ZM516.136 114.811C513.812 112.037 512.65 107.867 512.65 102.301C512.65 96.7344 513.812 92.5547 516.136 89.7617C518.46 86.9883 521.937 85.6016 526.566 85.6016C531.214 85.6016 534.701 86.9883 537.025 89.7617C539.33 92.5547 540.482 96.7344 540.482 102.301C540.482 107.867 539.33 112.037 537.025 114.811C534.701 117.604 531.214 119 526.566 119C521.937 119 518.46 117.604 516.136 114.811ZM567.189 114.107C565.314 117.369 562.384 119 558.4 119C549.611 119 545.216 113.434 545.216 102.301C545.216 91.168 549.611 85.6016 558.4 85.6016C562.384 85.6016 565.314 87.2324 567.189 90.4941V75.0547H571.583V119H567.189V114.107ZM564.933 93.248C563.449 91.0801 561.271 89.9961 558.4 89.9961C552.541 89.9961 549.611 94.0977 549.611 102.301C549.611 110.504 552.541 114.605 558.4 114.605C561.271 114.605 563.449 113.521 564.933 111.354C566.437 109.166 567.189 106.148 567.189 102.301C567.189 98.4336 566.437 95.416 564.933 93.248ZM583.056 103.033C583.154 106.9 583.916 109.762 585.341 111.617C586.845 113.609 589.257 114.605 592.578 114.605C595.898 114.605 598.32 113.609 599.843 111.617C600.449 110.816 600.937 109.83 601.308 108.658H605.878C605.312 111.158 604.365 113.209 603.037 114.811C600.712 117.604 597.226 119 592.578 119C587.949 119 584.472 117.613 582.148 114.84C579.824 112.047 578.662 107.867 578.662 102.301C578.662 96.7344 579.824 92.5645 582.148 89.791C584.472 86.998 587.949 85.6016 592.578 85.6016C597.226 85.6016 600.703 86.998 603.007 89.791C605.332 92.5645 606.494 96.7344 606.494 102.301V103.033H583.056ZM601.865 98.6387C601.552 96.1973 600.878 94.3027 599.843 92.9551C598.32 90.9824 595.898 89.9961 592.578 89.9961C589.257 89.9961 586.845 90.9824 585.341 92.9551C584.287 94.3027 583.603 96.1973 583.291 98.6387H601.865ZM641.48 79.4492H628.179V75.0547H659.117V79.4492H645.875V119H641.48V79.4492ZM666.576 103.033C666.673 106.9 667.435 109.762 668.861 111.617C670.365 113.609 672.777 114.605 676.097 114.605C679.417 114.605 681.839 113.609 683.363 111.617C683.968 110.816 684.457 109.83 684.828 108.658H689.398C688.832 111.158 687.884 113.209 686.556 114.811C684.232 117.604 680.746 119 676.097 119C671.468 119 667.992 117.613 665.667 114.84C663.343 112.047 662.181 107.867 662.181 102.301C662.181 96.7344 663.343 92.5645 665.667 89.791C667.992 86.998 671.468 85.6016 676.097 85.6016C680.746 85.6016 684.222 86.998 686.527 89.791C688.851 92.5645 690.013 96.7344 690.013 102.301V103.033H666.576ZM685.384 98.6387C685.072 96.1973 684.398 94.3027 683.363 92.9551C681.839 90.9824 679.417 89.9961 676.097 89.9961C672.777 89.9961 670.365 90.9824 668.861 92.9551C667.806 94.3027 667.123 96.1973 666.81 98.6387H685.384ZM716.662 100.836C714.962 101.539 712.765 102.076 710.07 102.447C706.417 102.955 703.673 103.805 701.837 104.996C700.001 106.188 699.083 107.721 699.083 109.596C699.083 111.256 699.621 112.506 700.695 113.346C701.769 114.186 703.38 114.605 705.529 114.605C707.619 114.605 709.591 114.078 711.447 113.023C713.302 111.969 715.041 110.396 716.662 108.307V100.836ZM694.689 94.0977C694.689 91.2656 695.792 89.1367 698 87.7109C700.187 86.3047 703.478 85.6016 707.873 85.6016C712.267 85.6016 715.568 86.3535 717.775 87.8574C719.962 89.3809 721.056 91.6562 721.056 94.6836V119H716.662V113.551C715.041 115.367 713.302 116.725 711.447 117.623C709.591 118.541 707.619 119 705.529 119C701.916 119 699.21 118.219 697.414 116.656C695.597 115.074 694.689 112.721 694.689 109.596C694.689 106.549 695.91 104.107 698.351 102.271C700.773 100.416 704.416 99.1758 709.279 98.5508C714.201 97.8867 716.662 96.9883 716.662 95.8555V94.6836C716.662 93.1211 715.929 91.9492 714.464 91.168C713 90.3867 710.802 89.9961 707.873 89.9961C704.943 89.9961 702.746 90.3379 701.281 91.0215C699.816 91.7051 699.083 92.7305 699.083 94.0977H694.689ZM753.828 98.4922V119H749.433V98.1992C749.433 92.7305 747.285 89.9961 742.988 89.9961C740.312 89.9961 738.271 91.1777 736.865 93.541C735.478 95.9043 734.785 97.5547 734.785 98.4922V119H730.39V85.6016H734.785V91.373C737.441 87.5254 740.468 85.6016 743.867 85.6016C748.691 85.6016 751.757 87.8672 753.066 92.3984L753.828 91.373C756.484 87.5254 759.511 85.6016 762.91 85.6016C769.55 85.6016 772.871 89.8984 772.871 98.4922V119H768.476V98.1992C768.476 92.7305 766.328 89.9961 762.031 89.9961C759.355 89.9961 757.314 91.1777 755.908 93.541C754.521 95.9043 753.828 97.5547 753.828 98.4922Z" fill="black"/>
</svg>
