<svg width="1700" height="250" viewBox="0 0 1700 153" fill="none" xmlns="http://www.w3.org/2000/svg">
<path d="M551.06 47.0547H557.271V91H552.876V55.3164L540.689 91H535.943L523.755 55.3164V91H519.361V47.0547H525.572L538.316 84.4082L551.06 47.0547ZM569.154 75.0332C569.251 78.9004 570.013 81.7617 571.439 83.6172C572.943 85.6094 575.355 86.6055 578.675 86.6055C581.996 86.6055 584.417 85.6094 585.941 83.6172C586.546 82.8164 587.035 81.8301 587.406 80.6582H591.976C591.41 83.1582 590.462 85.209 589.134 86.8105C586.81 89.6035 583.324 91 578.675 91C574.046 91 570.57 89.6133 568.246 86.8398C565.921 84.0469 564.759 79.8672 564.759 74.3008C564.759 68.7344 565.921 64.5645 568.246 61.791C570.57 58.998 574.046 57.6016 578.675 57.6016C583.324 57.6016 586.8 58.998 589.105 61.791C591.429 64.5645 592.591 68.7344 592.591 74.3008V75.0332H569.154ZM587.962 70.6387C587.65 68.1973 586.976 66.3027 585.941 64.9551C584.417 62.9824 581.996 61.9961 578.675 61.9961C575.355 61.9961 572.943 62.9824 571.439 64.9551C570.384 66.3027 569.701 68.1973 569.388 70.6387H587.962ZM601.662 75.0332C601.759 78.9004 602.521 81.7617 603.947 83.6172C605.451 85.6094 607.863 86.6055 611.183 86.6055C614.503 86.6055 616.925 85.6094 618.449 83.6172C619.054 82.8164 619.542 81.8301 619.914 80.6582H624.484C623.917 83.1582 622.97 85.209 621.642 86.8105C619.318 89.6035 615.832 91 611.183 91C606.554 91 603.078 89.6133 600.753 86.8398C598.429 84.0469 597.267 79.8672 597.267 74.3008C597.267 68.7344 598.429 64.5645 600.753 61.791C603.078 58.998 606.554 57.6016 611.183 57.6016C615.832 57.6016 619.308 58.998 621.613 61.791C623.937 64.5645 625.099 68.7344 625.099 74.3008V75.0332H601.662ZM620.47 70.6387C620.158 68.1973 619.484 66.3027 618.449 64.9551C616.925 62.9824 614.503 61.9961 611.183 61.9961C607.863 61.9961 605.451 62.9824 603.947 64.9551C602.892 66.3027 602.208 68.1973 601.896 70.6387H620.47ZM633.378 61.9961H628.662V57.6016H633.378V47.0547H637.773V57.6016H643.896V61.9961H637.773V82.5039C637.773 85.2383 639.814 86.6055 643.896 86.6055V91C636.884 91 633.378 88.168 633.378 82.5039V61.9961ZM669.449 61.9961H664.732V57.6016H669.449V47.0547H673.843V57.6016H679.966V61.9961H673.843V82.5039C673.843 85.2383 675.884 86.6055 679.966 86.6055V91C672.955 91 669.449 88.168 669.449 82.5039V61.9961ZM707.464 91V70.1992C707.464 64.7305 704.925 61.9961 699.847 61.9961C697.171 61.9961 694.837 63.1777 692.845 65.541C690.873 67.9043 689.886 69.5547 689.886 70.4922V91H685.492V47.0547H689.886V63.373C692.933 59.5254 696.253 57.6016 699.847 57.6016C707.855 57.6016 711.859 61.8008 711.859 70.1992V91H707.464ZM723.009 75.0332C723.107 78.9004 723.869 81.7617 725.294 83.6172C726.798 85.6094 729.21 86.6055 732.531 86.6055C735.851 86.6055 738.273 85.6094 739.796 83.6172C740.402 82.8164 740.89 81.8301 741.261 80.6582H745.832C745.265 83.1582 744.318 85.209 742.99 86.8105C740.666 89.6035 737.179 91 732.531 91C727.902 91 724.425 89.6133 722.101 86.8398C719.777 84.0469 718.615 79.8672 718.615 74.3008C718.615 68.7344 719.777 64.5645 722.101 61.791C724.425 58.998 727.902 57.6016 732.531 57.6016C737.179 57.6016 740.656 58.998 742.96 61.791C745.285 64.5645 746.447 68.7344 746.447 74.3008V75.0332H723.009ZM741.818 70.6387C741.505 68.1973 740.832 66.3027 739.796 64.9551C738.273 62.9824 735.851 61.9961 732.531 61.9961C729.21 61.9961 726.798 62.9824 725.294 64.9551C724.24 66.3027 723.556 68.1973 723.244 70.6387H741.818Z" fill="black"/>
<path d="M863.453 147.893C863.453 151.298 861.61 153 857.925 153C854.055 153 852.028 151.298 852.028 147.893V100.652H786.239V147.893C786.239 151.298 784.396 153 780.71 153C776.841 153 774.998 151.298 774.998 147.893V61.7106C774.998 50.6453 777.209 42.1335 783.843 34.2598L809.643 4.2559C811.117 2.34092 814.434 0 819.041 0C822.911 0 826.966 2.34092 828.255 4.2559L854.608 34.2598C861.426 41.9205 863.453 50.6453 863.453 61.7107V147.893ZM852.212 89.374V62.5618C852.212 54.2629 850.922 48.3047 845.578 42.1335L819.225 11.4909L792.873 42.1335C787.529 48.3047 786.239 54.263 786.239 62.5618V89.374H852.212Z" fill="#ED2024"/>
<path d="M883.188 92H878.793V48.0547H883.188V63.4941C885.062 60.2324 887.992 58.6016 891.977 58.6016C900.766 58.6016 905.16 64.168 905.16 75.3008C905.16 86.4336 900.766 92 891.977 92C887.992 92 885.062 90.3691 883.188 87.1074V92ZM885.414 66.248C883.93 68.416 883.188 71.4336 883.188 75.3008C883.188 79.1484 883.93 82.166 885.414 84.3535C886.918 86.5215 889.105 87.6055 891.977 87.6055C897.836 87.6055 900.766 83.5039 900.766 75.3008C900.766 67.0977 897.836 62.9961 891.977 62.9961C889.105 62.9961 886.918 64.0801 885.414 66.248ZM931.105 84.6172C932.609 82.6445 933.361 79.5391 933.361 75.3008C933.361 71.043 932.609 67.9277 931.105 65.9551C929.582 63.9824 927.16 62.9961 923.84 62.9961C920.52 62.9961 918.107 63.9824 916.604 65.9551C915.08 67.9277 914.318 71.043 914.318 75.3008C914.318 79.5391 915.08 82.6445 916.604 84.6172C918.107 86.6094 920.52 87.6055 923.84 87.6055C927.16 87.6055 929.582 86.6094 931.105 84.6172ZM913.41 87.8105C911.086 85.0371 909.924 80.8672 909.924 75.3008C909.924 69.7344 911.086 65.5547 913.41 62.7617C915.734 59.9883 919.211 58.6016 923.84 58.6016C928.488 58.6016 931.975 59.9883 934.299 62.7617C936.604 65.5547 937.756 69.7344 937.756 75.3008C937.756 80.8672 936.604 85.0371 934.299 87.8105C931.975 90.6035 928.488 92 923.84 92C919.211 92 915.734 90.6035 913.41 87.8105ZM964.463 87.1074C962.588 90.3691 959.658 92 955.674 92C946.885 92 942.49 86.4336 942.49 75.3008C942.49 64.168 946.885 58.6016 955.674 58.6016C959.658 58.6016 962.588 60.2324 964.463 63.4941V48.0547H968.857V92H964.463V87.1074ZM962.207 66.248C960.723 64.0801 958.545 62.9961 955.674 62.9961C949.814 62.9961 946.885 67.0977 946.885 75.3008C946.885 83.5039 949.814 87.6055 955.674 87.6055C958.545 87.6055 960.723 86.5215 962.207 84.3535C963.711 82.166 964.463 79.1484 964.463 75.3008C964.463 71.4336 963.711 68.416 962.207 66.248ZM980.33 76.0332C980.428 79.9004 981.189 82.7617 982.615 84.6172C984.119 86.6094 986.531 87.6055 989.852 87.6055C993.172 87.6055 995.594 86.6094 997.117 84.6172C997.723 83.8164 998.211 82.8301 998.582 81.6582H1003.15C1002.59 84.1582 1001.64 86.209 1000.31 87.8105C997.986 90.6035 994.5 92 989.852 92C985.223 92 981.746 90.6133 979.422 87.8398C977.098 85.0469 975.936 80.8672 975.936 75.3008C975.936 69.7344 977.098 65.5645 979.422 62.791C981.746 59.998 985.223 58.6016 989.852 58.6016C994.5 58.6016 997.977 59.998 1000.28 62.791C1002.61 65.5645 1003.77 69.7344 1003.77 75.3008V76.0332H980.33ZM999.139 71.6387C998.826 69.1973 998.152 67.3027 997.117 65.9551C995.594 63.9824 993.172 62.9961 989.852 62.9961C986.531 62.9961 984.119 63.9824 982.615 65.9551C981.561 67.3027 980.877 69.1973 980.564 71.6387H999.139ZM1038.75 52.4492H1025.45V48.0547H1056.39V52.4492H1043.15V92H1038.75V52.4492ZM1063.85 76.0332C1063.95 79.9004 1064.71 82.7617 1066.13 84.6172C1067.64 86.6094 1070.05 87.6055 1073.37 87.6055C1076.69 87.6055 1079.11 86.6094 1080.64 84.6172C1081.24 83.8164 1081.73 82.8301 1082.1 81.6582H1086.67C1086.11 84.1582 1085.16 86.209 1083.83 87.8105C1081.51 90.6035 1078.02 92 1073.37 92C1068.74 92 1065.27 90.6133 1062.94 87.8398C1060.62 85.0469 1059.46 80.8672 1059.46 75.3008C1059.46 69.7344 1060.62 65.5645 1062.94 62.791C1065.27 59.998 1068.74 58.6016 1073.37 58.6016C1078.02 58.6016 1081.5 59.998 1083.8 62.791C1086.12 65.5645 1087.29 69.7344 1087.29 75.3008V76.0332H1063.85ZM1082.66 71.6387C1082.35 69.1973 1081.67 67.3027 1080.64 65.9551C1079.11 63.9824 1076.69 62.9961 1073.37 62.9961C1070.05 62.9961 1067.64 63.9824 1066.13 65.9551C1065.08 67.3027 1064.4 69.1973 1064.08 71.6387H1082.66ZM1113.94 73.8359C1112.24 74.5391 1110.04 75.0762 1107.34 75.4473C1103.69 75.9551 1100.95 76.8047 1099.11 77.9961C1097.28 79.1875 1096.36 80.7207 1096.36 82.5957C1096.36 84.2559 1096.89 85.5059 1097.97 86.3457C1099.04 87.1855 1100.65 87.6055 1102.8 87.6055C1104.89 87.6055 1106.87 87.0781 1108.72 86.0234C1110.58 84.9688 1112.31 83.3965 1113.94 81.3066V73.8359ZM1091.96 67.0977C1091.96 64.2656 1093.07 62.1367 1095.27 60.7109C1097.46 59.3047 1100.75 58.6016 1105.15 58.6016C1109.54 58.6016 1112.84 59.3535 1115.05 60.8574C1117.24 62.3809 1118.33 64.6562 1118.33 67.6836V92H1113.94V86.5508C1112.31 88.3672 1110.58 89.7246 1108.72 90.623C1106.87 91.541 1104.89 92 1102.8 92C1099.19 92 1096.48 91.2188 1094.69 89.6562C1092.87 88.0742 1091.96 85.7207 1091.96 82.5957C1091.96 79.5488 1093.18 77.1074 1095.62 75.2715C1098.05 73.416 1101.69 72.1758 1106.55 71.5508C1111.47 70.8867 1113.94 69.9883 1113.94 68.8555V67.6836C1113.94 66.1211 1113.2 64.9492 1111.74 64.168C1110.27 63.3867 1108.08 62.9961 1105.15 62.9961C1102.22 62.9961 1100.02 63.3379 1098.55 64.0215C1097.09 64.7051 1096.36 65.7305 1096.36 67.0977H1091.96ZM1151.1 71.4922V92H1146.71V71.1992C1146.71 65.7305 1144.56 62.9961 1140.26 62.9961C1137.59 62.9961 1135.54 64.1777 1134.14 66.541C1132.75 68.9043 1132.06 70.5547 1132.06 71.4922V92H1127.66V58.6016H1132.06V64.373C1134.71 60.5254 1137.74 58.6016 1141.14 58.6016C1145.96 58.6016 1149.03 60.8672 1150.34 65.3984L1151.1 64.373C1153.76 60.5254 1156.79 58.6016 1160.18 58.6016C1166.82 58.6016 1170.14 62.8984 1170.14 71.4922V92H1165.75V71.1992C1165.75 65.7305 1163.6 62.9961 1159.3 62.9961C1156.63 62.9961 1154.59 64.1777 1153.18 66.541C1151.79 68.9043 1151.1 70.5547 1151.1 71.4922Z" fill="black"/>
</svg>
