<svg width="35" height="36" viewBox="0 0 35 36" fill="none" xmlns="http://www.w3.org/2000/svg">
<path fill-rule="evenodd" clip-rule="evenodd" d="M35 17.7871C35 8.12305 27.1641 0.287109 17.5 0.287109C7.83594 0.287109 0 8.12305 0 17.7871C0 26.5215 6.39844 33.7613 14.7656 35.0754V22.8473H10.3211V17.7871H14.7656V13.9316C14.7656 9.54648 17.3789 7.12227 21.3758 7.12227C23.2906 7.12227 25.2938 7.46445 25.2938 7.46445V11.7715H23.0859C20.9133 11.7715 20.2336 13.1199 20.2336 14.5059V17.7871H25.0867L24.3117 22.8473H20.2344V35.077C28.6016 33.7637 35 26.5238 35 17.7871V17.7871Z" fill="#9DADAD"/>
</svg>
