<svg width="41" height="41" viewBox="0 0 41 41" fill="none" xmlns="http://www.w3.org/2000/svg">
<path d="M27.7914 6.09805C29.7236 6.10382 31.5751 6.87395 32.9414 8.24025C34.3077 9.60656 35.0778 11.458 35.0836 13.3902V27.973C35.0778 29.9053 34.3077 31.7567 32.9414 33.123C31.5751 34.4893 29.7236 35.2595 27.7914 35.2652H13.2086C11.2764 35.2595 9.42491 34.4893 8.05861 33.123C6.69231 31.7567 5.92218 29.9053 5.91641 27.973V13.3902C5.92218 11.458 6.69231 9.60656 8.05861 8.24025C9.42491 6.87395 11.2764 6.10382 13.2086 6.09805H27.7914V6.09805ZM27.7914 3.18164H13.2086C7.59375 3.18164 3 7.77539 3 13.3902V27.973C3 33.5879 7.59375 38.1816 13.2086 38.1816H27.7914C33.4062 38.1816 38 33.5879 38 27.973V13.3902C38 7.77539 33.4062 3.18164 27.7914 3.18164V3.18164Z" fill="#9DADAD"/>
<path d="M29.9789 13.3906C29.5463 13.3906 29.1233 13.2623 28.7636 13.022C28.4039 12.7816 28.1235 12.44 27.9579 12.0402C27.7924 11.6405 27.749 11.2007 27.8334 10.7764C27.9178 10.352 28.1262 9.96226 28.4321 9.65633C28.738 9.3504 29.1278 9.14206 29.5521 9.05766C29.9765 8.97325 30.4163 9.01657 30.816 9.18214C31.2157 9.34771 31.5574 9.62808 31.7977 9.98782C32.0381 10.3475 32.1664 10.7705 32.1664 11.2031C32.167 11.4906 32.1109 11.7753 32.0012 12.041C31.8914 12.3067 31.7303 12.548 31.5271 12.7513C31.3238 12.9546 31.0824 13.1157 30.8168 13.2254C30.5511 13.3351 30.2663 13.3912 29.9789 13.3906V13.3906ZM20.5 14.8484C21.6538 14.8484 22.7816 15.1906 23.741 15.8316C24.7003 16.4726 25.448 17.3837 25.8895 18.4496C26.3311 19.5156 26.4466 20.6885 26.2215 21.8201C25.9964 22.9517 25.4408 23.9912 24.625 24.807C23.8091 25.6228 22.7697 26.1784 21.6381 26.4035C20.5065 26.6286 19.3335 26.5131 18.2676 26.0716C17.2016 25.63 16.2906 24.8823 15.6495 23.923C15.0085 22.9637 14.6664 21.8358 14.6664 20.682C14.6681 19.1354 15.2832 17.6525 16.3769 16.5589C17.4705 15.4652 18.9533 14.8501 20.5 14.8484V14.8484ZM20.5 11.932C18.7694 11.932 17.0777 12.4452 15.6388 13.4067C14.1998 14.3681 13.0783 15.7347 12.4161 17.3336C11.7538 18.9324 11.5805 20.6917 11.9181 22.3891C12.2558 24.0864 13.0891 25.6455 14.3128 26.8692C15.5365 28.0929 17.0956 28.9263 18.793 29.2639C20.4903 29.6015 22.2496 29.4282 23.8485 28.766C25.4473 28.1037 26.8139 26.9822 27.7754 25.5433C28.7368 24.1043 29.25 22.4126 29.25 20.682C29.25 18.3614 28.3281 16.1358 26.6872 14.4948C25.0462 12.8539 22.8206 11.932 20.5 11.932V11.932Z" fill="#9DADAD"/>
</svg>
