<svg width="39" height="31" viewBox="0 0 39 31" fill="none" xmlns="http://www.w3.org/2000/svg">
<path d="M38.25 4.23634C36.8433 4.84755 35.355 5.25023 33.832 5.43165C35.4326 4.49445 36.6362 3.00553 37.2172 1.24415C35.704 2.12899 34.0512 2.74983 32.3297 3.08009C31.6048 2.32035 30.7329 1.71595 29.7671 1.30364C28.8014 0.89133 27.7618 0.679713 26.7117 0.681654C22.4602 0.681654 19.0195 4.07228 19.0195 8.25197C19.0165 8.83335 19.0831 9.41299 19.218 9.97853C16.1693 9.83561 13.184 9.05789 10.4531 7.69514C7.72222 6.33238 5.30585 4.41459 3.35859 2.06447C2.67545 3.21612 2.31417 4.53013 2.3125 5.86915C2.3125 8.49415 3.68203 10.8145 5.75 12.1738C4.52479 12.1448 3.32468 11.8205 2.25156 11.2285V11.3223C2.25156 14.9942 4.90781 18.0488 8.42344 18.7442C7.76233 18.9204 7.08107 19.0097 6.39687 19.0098C5.91139 19.0106 5.42701 18.9635 4.95078 18.8692C5.92812 21.877 8.77266 24.0645 12.1422 24.127C9.4042 26.2371 6.04267 27.3775 2.58594 27.3692C1.97236 27.3682 1.35935 27.3317 0.75 27.2598C4.26655 29.5053 8.35425 30.693 12.5266 30.6817C26.6953 30.6817 34.4359 19.1426 34.4359 9.13478C34.4359 8.80665 34.4273 8.47853 34.4117 8.15822C35.9141 7.08951 37.2139 5.76143 38.25 4.23634V4.23634Z" fill="#9DADAD"/>
</svg>
