<svg width="116" height="116" viewBox="0 0 116 116" fill="none" xmlns="http://www.w3.org/2000/svg">
<path d="M7.52303 8.00868C-1.51405 17.3956 0.335529 27.367 0.335529 57.6599C0.335529 82.8162 -4.05364 108.035 18.9176 113.972C26.0907 115.816 89.6474 115.816 96.8109 113.962C106.375 111.494 114.157 103.737 115.221 90.2097C115.369 88.3218 115.369 27.0316 115.216 25.1054C114.085 10.6968 105.216 2.39285 93.5286 0.710971C90.8501 0.322846 90.3134 0.207846 76.5709 0.183887C27.8253 0.207846 17.1399 -1.96278 7.52303 8.00868Z" fill="url(#paint0_linear_274_4314)"/>
<path d="M57.8263 15.2246C40.4277 15.2246 23.9061 13.6769 17.5954 29.8727C14.9888 36.5619 15.3673 45.2492 15.3673 57.6883C15.3673 68.6037 15.0175 78.8627 17.5954 85.4992C23.8917 101.705 40.5475 100.152 57.8167 100.152C74.4773 100.152 91.6554 101.887 98.0427 85.4992C100.654 78.7429 100.271 70.185 100.271 57.6883C100.271 41.0996 101.186 30.3902 93.1409 22.3498C84.995 14.2039 73.979 15.2246 57.8071 15.2246H57.8263ZM54.0217 22.8769C90.3138 22.8194 94.9329 18.7848 92.3838 74.8329C91.4781 94.656 76.3844 92.4806 57.8311 92.4806C24.0019 92.4806 23.0292 91.5127 23.0292 57.6692C23.0292 23.4327 25.7125 22.896 54.0217 22.8673V22.8769ZM80.4909 29.9254C77.6782 29.9254 75.3973 32.2062 75.3973 35.0189C75.3973 37.8317 77.6782 40.1125 80.4909 40.1125C83.3036 40.1125 85.5844 37.8317 85.5844 35.0189C85.5844 32.2062 83.3036 29.9254 80.4909 29.9254ZM57.8263 35.8814C45.7848 35.8814 36.0242 45.6469 36.0242 57.6883C36.0242 69.7298 45.7848 79.4904 57.8263 79.4904C69.8677 79.4904 79.6236 69.7298 79.6236 57.6883C79.6236 45.6469 69.8677 35.8814 57.8263 35.8814ZM57.8263 43.5337C76.5377 43.5337 76.5617 71.8429 57.8263 71.8429C39.1196 71.8429 39.0909 43.5337 57.8263 43.5337Z" fill="white"/>
<defs>
<linearGradient id="paint0_linear_274_4314" x1="7.74354" y1="107.839" x2="114.624" y2="15.335" gradientUnits="userSpaceOnUse">
<stop stop-color="#FFDD55"/>
<stop offset="0.5" stop-color="#FF543E"/>
<stop offset="1" stop-color="#C837AB"/>
</linearGradient>
</defs>
</svg>
